<?xml version="1.0" encoding="utf-8"?>
<!-- Generator: Adobe Illustrator 15.0.0, SVG Export Plug-In . SVG Version: 6.00 Build 0)  -->
<!DOCTYPE svg PUBLIC "-//W3C//DTD SVG 1.1//EN" "http://www.w3.org/Graphics/SVG/1.1/DTD/svg11.dtd">
<svg version="1.1" id="Layer_1" xmlns="http://www.w3.org/2000/svg" xmlns:xlink="http://www.w3.org/1999/xlink" x="0px" y="0px"
	 width="124.193px" height="122.581px" viewBox="0 0 124.193 122.581" enable-background="new 0 0 124.193 122.581"
	 xml:space="preserve">
<path fill="none" d="M64.183,38.61c-1.645,4.083-1.641,7.698-0.087,11.428c0.524,1.256,1.229,2.527,2.106,3.833l6.67-23.377
	C68.487,31.957,65.562,35.181,64.183,38.61z"/>
<path d="M64.392,74.757c-1.186-1.063-2.314-2.128-3.382-3.195l-2.438,8.545c-5.433,19.039-13.364,22.234-24.614,19.024
	c-4.327-1.235-7.831-3.17-10.139-4.921l-0.12,0.252c2.583,2.568,4.184,6.123,4.184,10.053c0,1.374-0.206,2.699-0.571,3.957
	c1.525,0.63,3.096,1.189,4.609,1.621c16.731,4.774,31.687,0.463,39.054-25.355l0.643-2.25C69.802,80.06,67.409,77.515,64.392,74.757
	z"/>
<path d="M73.435,76.625l1.051-3.68c-0.893-0.747-1.831-1.485-2.822-2.213C72.392,72.769,72.983,74.73,73.435,76.625z"/>
<path fill="#F89838" d="M90.347,18.863l1.191-4.176l-12.693-3.622l-1.605,5.629C81.374,16.632,85.79,17.33,90.347,18.863z"/>
<path d="M28.053,104.31c0.375,0.195,0.749,0.369,1.124,0.541c-0.316-0.27-0.623-0.543-0.927-0.817L28.053,104.31z"/>
<path d="M65.63,55.874l0.572-2.003c-0.877-1.305-1.582-2.577-2.106-3.833C64.396,51.833,64.917,53.771,65.63,55.874z"/>
<path d="M65.925,56.744c1.848,1.105,3.729,2.292,5.635,3.558c-2.213-2.285-3.994-4.4-5.357-6.431l-0.572,2.003
	C65.729,56.164,65.819,56.446,65.925,56.744z"/>
<path d="M57.767,27.915c4.998-5.097,11.328-7.715,18.062-7.782l0.41-1.439c-11.452,0.172-20.75,6.161-24.863,16.379
	c-2.833,7.038-2.338,13.729,0.756,20.235C49.225,44.599,50.47,35.359,57.767,27.915z"/>
<path d="M91.96,21.82c-0.876-0.353-1.746-0.666-2.613-0.957l-0.621,2.175c3.988,1.841,7.918,4.551,11.607,8.167
	c2.693,2.641,4.906,5.272,6.695,7.786l3.676-4.29C107.622,30.711,101.423,25.629,91.96,21.82z"/>
<path d="M88.726,23.038l0.621-2.175c-4.557-1.533-8.973-2.231-13.107-2.169l-0.41,1.439C80.046,20.09,84.419,21.052,88.726,23.038z"
	/>
<path d="M21.384,94.525l-1.31,1.593c2.29,2.244,4.636,3.96,6.979,5.192l0.196-0.276C24.93,98.945,22.951,96.726,21.384,94.525z"/>
<path d="M84.042,108.645c1.722-2.185,3.133-4.645,4.207-7.312c5.386-13.381,0.963-23.997-11.575-36.058l-2.188,7.67
	C87.171,83.578,89.824,96.128,84.042,108.645z"/>
<path d="M71.56,60.301c-1.906-1.265-3.787-2.453-5.635-3.558c0.803,2.244,1.811,4.671,3.02,7.336
	c1.051,2.307,1.955,4.52,2.719,6.652c0.991,0.728,1.93,1.466,2.822,2.213l2.188-7.67c-0.37-0.355-0.745-0.713-1.128-1.071
	C74.089,62.842,72.767,61.548,71.56,60.301z"/>
<path d="M52.132,55.308c0.075,0.274,0.151,0.549,0.231,0.826l0.102-0.144C52.351,55.763,52.241,55.536,52.132,55.308z"/>
<path d="M52.363,56.134c1.02,3.527,2.476,7.208,4.309,11.038c0.138,0.296,0.257,0.574,0.389,0.864l1.916-2.692
	c-2.724-3.088-4.921-6.2-6.512-9.354L52.363,56.134z"/>
<path d="M18.637,94.633l-6.454,9.067c2.808,2.701,5.632,4.901,8.439,6.645l0.069-0.098c-2.812-2.316-5.122-4.699-6.597-6.854
	l5.979-7.276c-0.003-0.003-0.006-0.005-0.008-0.008C19.574,95.628,19.101,95.133,18.637,94.633z"/>
<path d="M74.346,82.046c-0.158-1.746-0.466-3.552-0.911-5.422l-0.816,2.863C73.267,80.355,73.845,81.207,74.346,82.046z"/>
<path d="M60.062,63.818l-1.085,1.525c0.949,1.075,1.961,2.148,3.033,3.219l0.954-3.344C61.898,64.658,60.921,64.186,60.062,63.818z"
	/>
<path d="M70.952,70.207c-3.064-2.182-5.742-3.806-7.988-4.988l-0.954,3.344c1.067,1.067,2.196,2.132,3.382,3.195
	c3.018,2.758,5.41,5.303,7.227,7.73l0.816-2.863c-0.451-1.895-1.043-3.855-1.771-5.893C71.425,70.556,71.196,70.38,70.952,70.207z"
	/>
<path d="M55.826,51.269c3.032,1.465,6.275,3.21,9.634,5.203l0.17-0.598c-0.713-2.103-1.234-4.042-1.534-5.836
	c-1.554-3.73-1.558-7.346,0.087-11.428c1.38-3.429,4.305-6.653,8.689-8.116l2.957-10.36c-6.734,0.067-13.064,2.685-18.062,7.782
	c-7.297,7.444-8.542,16.684-5.635,27.393c0.108,0.228,0.219,0.455,0.333,0.682L55.826,51.269z"/>
<path d="M88.726,23.038l-2.341,8.204c0.371,0.134,0.745,0.275,1.126,0.428c8.486,3.417,13.684,8.581,15.879,11.566l3.639-4.245
	c-1.789-2.514-4.002-5.145-6.695-7.786C96.644,27.589,92.714,24.879,88.726,23.038z"/>
<path d="M65.46,56.472c0.156,0.093,0.309,0.178,0.465,0.272c-0.105-0.297-0.195-0.58-0.295-0.87L65.46,56.472z"/>
<path d="M75.829,20.133l-2.957,10.36c3.557-1.188,8.074-1.216,13.513,0.748l2.341-8.204C84.419,21.052,80.046,20.09,75.829,20.133z"
	/>
<path d="M62.964,65.218l2.496-8.747c-3.359-1.993-6.602-3.738-9.634-5.203l-3.36,4.721c1.591,3.154,3.788,6.265,6.512,9.354
	l1.085-1.525C60.921,64.186,61.898,64.658,62.964,65.218z"/>
<path d="M62.964,65.218c2.246,1.183,4.924,2.807,7.988,4.988c0.244,0.174,0.473,0.35,0.711,0.525
	c-0.764-2.133-1.668-4.346-2.719-6.652c-1.209-2.665-2.217-5.092-3.02-7.336c-0.156-0.094-0.309-0.179-0.465-0.272L62.964,65.218z"
	/>
</svg>
