<?xml version="1.0" encoding="utf-8"?>
<!-- Generator: Adobe Illustrator 15.0.0, SVG Export Plug-In . SVG Version: 6.00 Build 0)  -->
<!DOCTYPE svg PUBLIC "-//W3C//DTD SVG 1.1//EN" "http://www.w3.org/Graphics/SVG/1.1/DTD/svg11.dtd">
<svg version="1.1" id="Layer_1" xmlns="http://www.w3.org/2000/svg" xmlns:xlink="http://www.w3.org/1999/xlink" x="0px" y="0px"
	 width="276px" height="174px" viewBox="0 0 276 174" enable-background="new 0 0 276 174" xml:space="preserve">
<g>
	<path fill="none" d="M143.607,33.999c-1.644,4.083-1.64,7.698-0.086,11.428c0.524,1.256,1.23,2.527,2.106,3.833l6.67-23.377
		C147.913,27.346,144.988,30.569,143.607,33.999z"/>
	<path fill="#F89838" d="M143.816,70.146c-1.186-1.064-2.313-2.128-3.381-3.195l-2.438,8.544
		c-5.433,19.04-13.364,22.235-24.614,19.025c-4.327-1.235-7.831-3.17-10.139-4.92l-0.12,0.252c2.583,2.567,4.184,6.122,4.184,10.052
		c0,1.375-0.206,2.699-0.571,3.957c1.525,0.63,3.096,1.19,4.609,1.622c16.731,4.774,31.688,0.463,39.055-25.355l0.642-2.25
		C149.228,75.449,146.834,72.903,143.816,70.146z"/>
	<path d="M152.86,72.013l1.05-3.68c-0.892-0.747-1.831-1.485-2.822-2.213C151.816,68.157,152.409,70.119,152.86,72.013z"/>
	<path fill="#F89838" d="M169.771,14.252l1.191-4.176l-12.692-3.622l-1.606,5.629C160.8,12.021,165.216,12.719,169.771,14.252z"/>
	<path d="M107.479,99.699c0.375,0.196,0.749,0.369,1.124,0.541c-0.316-0.27-0.623-0.542-0.927-0.817L107.479,99.699z"/>
	<path d="M145.056,51.263l0.571-2.003c-0.876-1.305-1.582-2.577-2.106-3.833C143.821,47.221,144.343,49.16,145.056,51.263z"/>
	<path d="M145.35,52.132c1.847,1.105,3.729,2.292,5.634,3.558c-2.212-2.285-3.994-4.4-5.357-6.431l-0.571,2.003
		C145.154,51.552,145.244,51.835,145.35,52.132z"/>
	<path d="M137.192,23.304c4.997-5.097,11.328-7.715,18.062-7.782l0.411-1.439c-11.452,0.172-20.75,6.161-24.863,16.379
		c-2.833,7.038-2.338,13.729,0.756,20.235C128.65,39.987,129.895,30.748,137.192,23.304z"/>
	<path d="M171.386,17.208c-0.876-0.353-1.747-0.666-2.614-0.957l-0.621,2.175c3.989,1.841,7.918,4.551,11.607,8.167
		c2.694,2.641,4.906,5.272,6.695,7.786l3.677-4.29C187.048,26.1,180.848,21.018,171.386,17.208z"/>
	<path d="M168.15,18.427l0.621-2.175c-4.556-1.533-8.972-2.231-13.107-2.169l-0.411,1.439
		C159.471,15.479,163.844,16.44,168.15,18.427z"/>
	<path d="M100.81,89.914l-1.31,1.593c2.29,2.244,4.636,3.96,6.979,5.192l0.196-0.276C104.355,94.333,102.376,92.115,100.81,89.914z"
		/>
	<path d="M163.467,104.034c1.722-2.185,3.133-4.645,4.207-7.312c5.386-13.381,0.963-23.998-11.575-36.058l-2.189,7.67
		C166.597,78.966,169.25,91.518,163.467,104.034z"/>
	<path d="M150.984,55.69c-1.905-1.265-3.787-2.453-5.634-3.558c0.803,2.244,1.811,4.671,3.02,7.336
		c1.05,2.306,1.955,4.519,2.718,6.651c0.992,0.728,1.93,1.466,2.822,2.213l2.189-7.67c-0.37-0.356-0.745-0.712-1.128-1.071
		C153.515,58.231,152.192,56.937,150.984,55.69z"/>
	<path d="M131.558,50.697c0.075,0.274,0.151,0.549,0.231,0.826l0.102-0.144C131.776,51.151,131.666,50.924,131.558,50.697z"/>
	<path d="M101.821,109.213c-0.241-0.191-0.47-0.385-0.704-0.577l-0.069,0.099C101.306,108.894,101.564,109.061,101.821,109.213z"/>
	<path d="M131.789,51.522c1.02,3.527,2.476,7.208,4.309,11.037c0.138,0.296,0.257,0.574,0.389,0.865l1.916-2.693
		c-2.724-3.088-4.921-6.199-6.512-9.353L131.789,51.522z"/>
	<path d="M98.062,90.022l-6.454,9.068c2.808,2.701,5.632,4.901,8.439,6.645l0.069-0.099c-2.812-2.315-5.122-4.698-6.597-6.853
		l5.979-7.276c-0.003-0.002-0.006-0.004-0.008-0.008C99,91.018,98.526,90.522,98.062,90.022z"/>
	<path d="M153.771,77.436c-0.158-1.747-0.465-3.552-0.911-5.422l-0.817,2.864C152.691,75.743,153.27,76.596,153.771,77.436z"/>
	<path d="M139.487,59.207l-1.085,1.525c0.949,1.076,1.961,2.149,3.033,3.22l0.954-3.344
		C141.323,60.046,140.346,59.575,139.487,59.207z"/>
	<path d="M150.378,65.596c-3.065-2.182-5.743-3.806-7.989-4.989l-0.954,3.344c1.068,1.067,2.196,2.131,3.381,3.195
		c3.018,2.757,5.411,5.302,7.227,7.73l0.817-2.864c-0.451-1.894-1.044-3.856-1.772-5.893
		C150.851,65.945,150.622,65.769,150.378,65.596z"/>
	<path d="M135.251,46.657c3.032,1.465,6.275,3.21,9.634,5.203l0.171-0.598c-0.713-2.103-1.234-4.042-1.535-5.836
		c-1.554-3.73-1.557-7.345,0.086-11.428c1.38-3.429,4.305-6.653,8.69-8.116l2.957-10.36c-6.734,0.067-13.064,2.685-18.062,7.782
		c-7.297,7.444-8.542,16.684-5.635,27.393c0.108,0.228,0.219,0.455,0.333,0.682L135.251,46.657z"/>
	<path d="M168.15,18.427l-2.34,8.204c0.371,0.134,0.746,0.275,1.125,0.428c8.487,3.417,13.685,8.581,15.879,11.566l3.639-4.245
		c-1.789-2.514-4.001-5.145-6.695-7.786C176.069,22.978,172.139,20.268,168.15,18.427z"/>
	<path d="M144.885,51.86c0.156,0.093,0.309,0.178,0.465,0.272c-0.106-0.297-0.196-0.58-0.294-0.87L144.885,51.86z"/>
	<path d="M155.254,15.522l-2.957,10.36c3.557-1.188,8.075-1.216,13.513,0.748l2.34-8.204
		C163.844,16.44,159.471,15.479,155.254,15.522z"/>
	<path d="M142.389,60.607l2.496-8.747c-3.358-1.993-6.602-3.738-9.634-5.203l-3.36,4.721c1.591,3.154,3.788,6.265,6.512,9.353
		l1.085-1.525C140.346,59.575,141.323,60.046,142.389,60.607z"/>
	<path d="M142.389,60.607c2.246,1.183,4.923,2.807,7.989,4.989c0.244,0.173,0.473,0.35,0.71,0.524
		c-0.763-2.133-1.668-4.345-2.718-6.651c-1.209-2.665-2.217-5.093-3.02-7.336c-0.157-0.094-0.309-0.179-0.465-0.272L142.389,60.607z
		"/>
	<text transform="matrix(1 0 0 1 9.1318 154.8774)"><tspan x="0" y="0" fill="#F89838" font-family="'MyriadPro-Regular'" font-size="57.8065">Juicey</tspan><tspan x="148.85" y="0" fill="#999999" font-family="'MyriadPro-Regular'" font-size="57.8065">stuff</tspan></text>
</g>
</svg>
